<svg width="14" height="14" viewBox="0 0 14 14" fill="none" xmlns="http://www.w3.org/2000/svg">
<path d="M12.1861 2.78027L12.1864 2.7806C12.4341 3.02824 12.6307 3.32227 12.7648 3.64588C12.8989 3.9695 12.9679 4.31637 12.9679 4.66666C12.9679 5.01696 12.8989 5.36382 12.7648 5.68744C12.6307 6.01106 12.4341 6.30509 12.1864 6.55272L12.1862 6.55289L11.4796 7.25956L7 11.7391L2.52044 7.25956L1.81377 6.55289C1.31351 6.05263 1.03247 5.37414 1.03247 4.66666C1.03247 3.95919 1.31351 3.2807 1.81377 2.78044C2.31403 2.28018 2.99253 1.99914 3.7 1.99914C4.40747 1.99914 5.08597 2.28018 5.58622 2.78044L6.29333 2.07333L5.58622 2.78044L6.29289 3.4871C6.68342 3.87763 7.31658 3.87763 7.7071 3.4871L8.41377 2.78044L8.41394 2.78027C8.66158 2.53251 8.9556 2.33598 9.27922 2.20189C9.60284 2.0678 9.9497 1.99878 10.3 1.99878C10.6503 1.99878 10.9972 2.0678 11.3208 2.20189L11.6991 1.28877L11.3208 2.20189C11.6444 2.33598 11.9384 2.53251 12.1861 2.78027Z" fill="white" stroke="red" stroke-width="2" stroke-linecap="round" stroke-linejoin="round"/>
</svg>
